<svg width="111" height="35" viewBox="0 0 111 35" fill="none" xmlns="http://www.w3.org/2000/svg">
<path d="M10.0703 34.66C8.63025 34.66 7.47825 34.18 6.61425 33.22C4.69425 31.108 3.20625 28.696 2.15025 25.984C1.11825 23.248 0.60225 20.416 0.60225 17.488C0.60225 14.56 1.11825 11.728 2.15025 8.992C3.20625 6.256 4.69425 3.832 6.61425 1.72C7.47825 0.759999 8.63025 0.279999 10.0703 0.279999H11.0423C11.4263 0.279999 11.7023 0.459998 11.8703 0.819998C12.0383 1.156 11.9903 1.48 11.7263 1.792C8.03025 6.304 6.18225 11.536 6.18225 17.488C6.18225 23.416 8.03025 28.636 11.7263 33.148C11.9903 33.46 12.0383 33.784 11.8703 34.12C11.7023 34.48 11.4263 34.66 11.0423 34.66H10.0703ZM37.0748 6.04C35.7548 6.88 34.1948 7.3 32.3948 7.3C30.6188 7.3 29.0708 6.88 27.7508 6.04C26.4548 5.176 25.5788 4.024 25.1228 2.584C24.9548 2.08 25.0508 1.624 25.4108 1.216C25.7948 0.783999 26.2748 0.567999 26.8508 0.567999H27.0308C27.9188 0.567999 28.8308 1.204 29.7668 2.476C30.3908 3.34 31.2668 3.772 32.3948 3.772C33.5468 3.772 34.4468 3.34 35.0948 2.476C36.0308 1.204 36.9428 0.567999 37.8308 0.567999H38.0108C38.5868 0.567999 39.0548 0.783999 39.4148 1.216C39.7748 1.624 39.8828 2.08 39.7388 2.584C39.2828 4.024 38.3948 5.176 37.0748 6.04ZM49.8072 28.36C47.6472 28.36 45.8592 27.568 44.4432 25.984C43.0512 24.376 42.3552 22.192 42.3552 19.432C42.3552 16.576 42.8832 13.804 43.9392 11.116C44.1792 10.54 44.5632 10.096 45.0912 9.784C45.6192 9.448 46.1952 9.28 46.8192 9.28H48.3312C48.7872 9.28 49.1472 9.484 49.4112 9.892C49.6752 10.276 49.7112 10.684 49.5192 11.116C48.4152 13.876 47.8632 16.504 47.8632 19C47.8632 20.632 48.1032 21.856 48.5832 22.672C49.0872 23.488 49.7352 23.896 50.5272 23.896C51.2472 23.896 51.8352 23.464 52.2912 22.6C52.7472 21.736 52.9752 20.44 52.9752 18.712V13.492C52.9752 12.94 53.1792 12.46 53.5872 12.052C53.9952 11.644 54.4752 11.44 55.0272 11.44H55.9632C56.5152 11.44 56.9952 11.644 57.4032 12.052C57.8112 12.46 58.0152 12.94 58.0152 13.492V18.712C58.0152 20.44 58.2312 21.736 58.6632 22.6C59.1192 23.464 59.7072 23.896 60.4272 23.896C61.2192 23.896 61.8672 23.488 62.3712 22.672C62.8752 21.856 63.1272 20.632 63.1272 19C63.1272 16.504 62.5752 13.876 61.4712 11.116C61.2792 10.684 61.3152 10.276 61.5792 9.892C61.8432 9.484 62.2032 9.28 62.6592 9.28H64.1712C64.7952 9.28 65.3712 9.448 65.8992 9.784C66.4272 10.096 66.8112 10.54 67.0512 11.116C68.1072 13.804 68.6352 16.576 68.6352 19.432C68.6352 22.192 67.9272 24.376 66.5112 25.984C65.1192 27.568 63.3432 28.36 61.1832 28.36C59.8392 28.36 58.6512 27.964 57.6192 27.172C56.6112 26.356 55.9152 25.252 55.5312 23.86C55.5312 23.812 55.5192 23.788 55.4952 23.788C55.4712 23.788 55.4592 23.812 55.4592 23.86C55.0752 25.252 54.3672 26.356 53.3352 27.172C52.3272 27.964 51.1512 28.36 49.8072 28.36ZM83.6568 6.04C82.3368 6.88 80.7768 7.3 78.9768 7.3C77.2008 7.3 75.6528 6.88 74.3328 6.04C73.0368 5.176 72.1608 4.024 71.7048 2.584C71.5368 2.08 71.6328 1.624 71.9928 1.216C72.3768 0.783999 72.8568 0.567999 73.4328 0.567999H73.6128C74.5008 0.567999 75.4128 1.204 76.3488 2.476C76.9728 3.34 77.8488 3.772 78.9768 3.772C80.1288 3.772 81.0288 3.34 81.6768 2.476C82.6128 1.204 83.5248 0.567999 84.4128 0.567999H84.5928C85.1688 0.567999 85.6368 0.783999 85.9968 1.216C86.3568 1.624 86.4648 2.08 86.3208 2.584C85.8648 4.024 84.9768 5.176 83.6568 6.04ZM100.17 34.66C99.7858 34.66 99.5098 34.48 99.3418 34.12C99.1978 33.784 99.2458 33.46 99.4858 33.148C103.182 28.636 105.03 23.416 105.03 17.488C105.03 11.536 103.182 6.304 99.4858 1.792C99.2458 1.48 99.1978 1.156 99.3418 0.819998C99.5098 0.459998 99.7858 0.279999 100.17 0.279999H101.142C102.606 0.279999 103.758 0.759999 104.598 1.72C106.518 3.832 107.994 6.256 109.026 8.992C110.082 11.728 110.61 14.56 110.61 17.488C110.61 20.416 110.082 23.248 109.026 25.984C107.994 28.696 106.518 31.108 104.598 33.22C103.758 34.18 102.606 34.66 101.142 34.66H100.17Z" fill="white"/>
</svg>
